0
SECTION
2
HEADER
9
$INSUNITS
70
4
9
$ACADVER
1
AC1014
9
$HANDSEED
5
FFFF
0
ENDSEC
0
SECTION
2
TABLES
0
TABLE
2
VPORT
5
8
100
AcDbSymbolTable
0
ENDTAB
0
TABLE
2
LTYPE
5
5
100
AcDbSymbolTable
0
LTYPE
5
14
100
AcDbSymbolTableRecord
100
AcDbLinetypeTableRecord
2
BYBLOCK
70
0
0
LTYPE
5
15
100
AcDbSymbolTableRecord
100
AcDbLinetypeTableRecord
2
BYLAYER
70
0
0
ENDTAB
0
TABLE
2
LAYER
5
2
100
AcDbSymbolTable
70
2
0
LAYER
5
50
100
AcDbSymbolTableRecord
100
AcDbLayerTableRecord
2
0
70
0
6
CONTINUOUS
0
ENDTAB
0
TABLE
2
STYLE
5
3
100
AcDbSymbolTable
70
1
0
STYLE
5
11
100
AcDbSymbolTableRecord
100
AcDbTextStyleTableRecord
2
STANDARD
70
0
0
ENDTAB
0
TABLE
2
VIEW
5
6
100
AcDbSymbolTable
70
0
0
ENDTAB
0
TABLE
2
UCS
5
7
100
AcDbSymbolTable
70
0
0
ENDTAB
0
TABLE
2
APPID
5
9
100
AcDbSymbolTable
70
2
0
APPID
5
12
100
AcDbSymbolTableRecord
100
AcDbRegAppTableRecord
2
ACAD
70
0
0
ENDTAB
0
TABLE
2
DIMSTYLE
5
A
100
AcDbSymbolTable
70
1
0
ENDTAB
0
TABLE
2
BLOCK_RECORD
5
1
100
AcDbSymbolTable
70
1
0
BLOCK_RECORD
5
1F
100
AcDbSymbolTableRecord
100
AcDbBlockTableRecord
2
*MODEL_SPACE
0
BLOCK_RECORD
5
1B
100
AcDbSymbolTableRecord
100
AcDbBlockTableRecord
2
*PAPER_SPACE
0
ENDTAB
0
ENDSEC
0
SECTION
2
BLOCKS
0
BLOCK
5
20
100
AcDbEntity
100
AcDbBlockBegin
2
*MODEL_SPACE
0
ENDBLK
5
21
100
AcDbEntity
100
AcDbBlockEnd
0
BLOCK
5
1C
100
AcDbEntity
100
AcDbBlockBegin
2
*PAPER_SPACE
0
ENDBLK
5
1D
100
AcDbEntity
100
AcDbBlockEnd
0
ENDSEC
0
SECTION
2
ENTITIES
0
LWPOLYLINE
5
100
100
AcDbEntity
8
0
100
AcDbPolyline
90
8
70
1
43
0.0
10
-29.136038969322151
20
27.499999999999986
10
29.136038969321021
20
27.500000000000004
10
42.499999999999936
20
14.136038969321078
10
42.499999999999929
20
-14.136038969321053
10
29.136038969320985
20
-27.5
10
-29.136038969321369
20
-27.500000000000007
10
-42.499999999999972
20
-14.13603896932111
10
-42.499999999999858
20
14.136038969320603
0
LINE
5
101
100
AcDbEntity
8
0
100
AcDbLine
10
6.7999999999999332
20
-5.9999999999999929
30
0
11
-6.8000000000000771
21
-5.999999999999992
31
0
0
LINE
5
102
100
AcDbEntity
8
0
100
AcDbLine
10
-6.8049060172512421
20
-27.100000000000009
30
0
11
6.8049060172512466
21
-27.100000000000009
31
0
0
LINE
5
103
100
AcDbEntity
8
0
100
AcDbLine
10
-18.600708638969355
20
-2.8464657245066505
30
0
11
-17.300708638969354
21
-2.8464657245066509
31
0
0
LINE
5
104
100
AcDbEntity
8
0
100
AcDbLine
10
-20.600708638969355
20
-2.8464657245066505
30
0
11
-19.300708638969354
21
-2.8464657245066509
31
0
0
LINE
5
105
100
AcDbEntity
8
0
100
AcDbLine
10
-22.600708638969355
20
-2.8464657245066496
30
0
11
-21.300708638969358
21
-2.84646572450665
31
0
0
LINE
5
106
100
AcDbEntity
8
0
100
AcDbLine
10
-16.803534450954526
20
-17.246465724506656
30
0
11
-18.103534283474524
21
-17.246465724506656
31
0
0
LINE
5
107
100
AcDbEntity
8
0
100
AcDbLine
10
-21.803534267512184
20
-17.246465724506656
30
0
11
-23.103534100032185
21
-17.246465724506656
31
0
0
CIRCLE
5
108
100
AcDbEntity
8
0
100
AcDbCircle
10
-31.549999999999866
20
9.8532568089191663
30
0
40
0.69999999999999996
210
0
220
-0
230
1
0
CIRCLE
5
109
100
AcDbEntity
8
0
100
AcDbCircle
10
-28.999999999999865
20
15.00325680891917
30
0
40
1.8881479970028778
210
0
220
0
230
1
0
CIRCLE
5
110
100
AcDbEntity
8
0
100
AcDbCircle
10
-23.999999999999865
20
15.00325680891917
30
0
40
0.80000000000000016
210
0
220
0
230
1
0
CIRCLE
5
111
100
AcDbEntity
8
0
100
AcDbCircle
10
-33.999999999999858
20
15.00325680891917
30
0
40
0.79999999999999949
210
0
220
-0
230
1
0
CIRCLE
5
112
100
AcDbEntity
8
0
100
AcDbCircle
10
-10.999999999999872
20
15.003256808919158
30
0
40
1.8999999999999984
210
0
220
-0
230
1
0
CIRCLE
5
113
100
AcDbEntity
8
0
100
AcDbCircle
10
-15.99999999999987
20
15.003256808919158
30
0
40
0.79999999999999893
210
0
220
-0
230
1
0
CIRCLE
5
114
100
AcDbEntity
8
0
100
AcDbCircle
10
-5.9999999999998765
20
15.003256808919158
30
0
40
0.79999999999999982
210
0
220
-0
230
1
0
CIRCLE
5
115
100
AcDbEntity
8
0
100
AcDbCircle
10
20.860000000000124
20
0.0032568089191764571
30
0
40
1.8999999999999999
210
0
220
-0
230
1
0
CIRCLE
5
116
100
AcDbEntity
8
0
100
AcDbCircle
10
15.860000000000124
20
0.0032568089191764571
30
0
40
0.79999999999999971
210
0
220
-0
230
1
0
CIRCLE
5
117
100
AcDbEntity
8
0
100
AcDbCircle
10
25.860000000000124
20
0.0032568089191764571
30
0
40
0.8000000000000006
210
0
220
-0
230
1
0
CIRCLE
5
118
100
AcDbEntity
8
0
100
AcDbCircle
10
-10.999999999999872
20
15.003256808919158
30
0
40
1.9999999999999993
210
0
220
0
230
1
0
CIRCLE
5
119
100
AcDbEntity
8
0
100
AcDbCircle
10
-28.999999999999865
20
15.00325680891917
30
0
40
1.9999999999999991
210
0
220
0
230
1
0
CIRCLE
5
120
100
AcDbEntity
8
0
100
AcDbCircle
10
20.860000000000124
20
0.0032568089191764571
30
0
40
2
210
0
220
0
230
1
0
CIRCLE
5
121
100
AcDbEntity
8
0
100
AcDbCircle
10
-5.9999999999998765
20
15.003256808919158
30
0
40
0.85000000000000087
210
0
220
0
230
1
0
CIRCLE
5
122
100
AcDbEntity
8
0
100
AcDbCircle
10
-15.99999999999987
20
15.003256808919158
30
0
40
0.84999999999999964
210
0
220
0
230
1
0
CIRCLE
5
123
100
AcDbEntity
8
0
100
AcDbCircle
10
-33.999999999999858
20
15.00325680891917
30
0
40
0.85000000000000087
210
0
220
0
230
1
0
CIRCLE
5
124
100
AcDbEntity
8
0
100
AcDbCircle
10
-23.999999999999865
20
15.00325680891917
30
0
40
0.84999999999999953
210
0
220
0
230
1
0
CIRCLE
5
125
100
AcDbEntity
8
0
100
AcDbCircle
10
15.860000000000124
20
0.0032568089191764571
30
0
40
0.8500000000000002
210
0
220
0
230
1
0
CIRCLE
5
126
100
AcDbEntity
8
0
100
AcDbCircle
10
25.860000000000124
20
0.0032568089191764571
30
0
40
0.85000000000000075
210
0
220
0
230
1
0
CIRCLE
5
127
100
AcDbEntity
8
0
100
AcDbCircle
10
-13.549999999999873
20
9.8532568089191557
30
0
40
0.69999999999999962
210
0
220
-0
230
1
0
CIRCLE
5
128
100
AcDbEntity
8
0
100
AcDbCircle
10
-7.3499999999998744
20
12.353256808919163
30
0
40
0.70000000000000062
210
0
220
-0
230
1
0
CIRCLE
5
129
100
AcDbEntity
8
0
100
AcDbCircle
10
-25.349999999999866
20
12.35325680891917
30
0
40
0.70000000000000084
210
0
220
-0
230
1
0
CIRCLE
5
130
100
AcDbEntity
8
0
100
AcDbCircle
10
18.310000000000123
20
-5.1467431910808266
30
0
40
0.70000000000000007
210
0
220
-0
230
1
0
CIRCLE
5
131
100
AcDbEntity
8
0
100
AcDbCircle
10
24.510000000000119
20
-2.6467431910808212
30
0
40
0.70000000000000107
210
0
220
-0
230
1
0
CIRCLE
5
132
100
AcDbEntity
8
0
100
AcDbCircle
10
29.343145750508679
20
17.343145750508381
30
0
40
5.8499999999999996
210
-0
220
0
230
1
0
CIRCLE
5
133
100
AcDbEntity
8
0
100
AcDbCircle
10
29.343145750508679
20
-17.343145750508139
30
0
40
5.8499999999999996
210
-0
220
0
230
1
0
CIRCLE
5
134
100
AcDbEntity
8
0
100
AcDbCircle
10
-33.000000491738319
20
-1.0000000149011616
30
0
40
5.8499999999999996
210
-0
220
0
230
1
0
ENDSEC
0
SECTION
2
OBJECTS
0
DICTIONARY
5
C
100
AcDbDictionary
3
ACAD_GROUP
350
D
3
ACAD_MLINESTYLE
350
17
0
DICTIONARY
5
D
100
AcDbDictionary
0
DICTIONARY
5
1A
330
C
100
AcDbDictionary
0
DICTIONARY
5
17
100
AcDbDictionary
0
ENDSEC
0
EOF
